<svg width="100%" height="100%" viewBox="0 0 207.547 45.8474" fill="none" xmlns="http://www.w3.org/2000/svg">
<path id="Vector" fill-rule="evenodd" clip-rule="evenodd" d="M1.95831 43.7163C3.30224 45.137 4.41579 45.8474 5.29895 45.8474C6.45089 45.8474 8.75478 43.3515 12.2106 38.3598L13.593 39.7421C17.5864 43.8123 20.7926 45.8474 23.2117 45.8474C25.2468 45.8474 26.2643 45.0986 26.2643 43.6011C26.2643 43.1403 25.8612 42.5836 25.0548 41.9308C24.2499 41.2102 23.4037 40.5371 22.5205 39.9149C21.599 39.2621 20.735 38.3214 19.9287 37.0926C19.1607 35.8255 18.7767 34.5392 18.7767 33.2336C18.7767 31.8897 19.5831 30.373 21.1958 28.6834C22.7592 27.0763 24.3927 25.5389 26.0916 24.0757C27.7427 22.6933 28.5682 21.8102 28.5682 21.4262C28.5682 20.4662 27.9923 19.3527 26.8403 18.0855C25.6884 16.78 24.6324 16.1272 23.6725 16.1272C23.1733 16.1272 22.4629 16.5496 21.5414 17.3944C21.0422 17.8168 20.543 18.2775 20.0438 18.7767C19.4555 19.3818 18.898 20.0162 18.3735 20.6774C17.7208 21.4454 17.1256 22.1557 16.588 22.8085C15.9008 23.6021 15.2287 24.4086 14.5721 25.2276C13.2243 26.9866 11.8611 28.7338 10.4827 30.4689C9.63794 31.5441 8.96597 32.4081 8.4668 33.0608C9.96433 29.6818 11.4619 25.0548 12.9594 19.1799C14.4953 13.305 15.2633 9.31156 15.2633 7.19966C15.2633 5.74053 14.4953 4.1854 12.9594 2.53428C11.4619 0.84476 10.2523 0 9.33076 0C8.25561 0 7.71803 0.595172 7.71803 1.78552C7.71803 6.3549 7.06526 11.6922 5.75973 17.7976C4.49259 23.9029 3.20625 29.125 1.90071 33.464C0.63357 37.803 0 40.0877 0 40.3181C0 41.1628 0.652769 42.2956 1.95831 43.7163ZM46.265 16.14H49.1129C49.8024 16.4472 50.4792 16.9032 51.1416 17.5096C52.4855 18.6999 53.1575 19.7943 53.1575 20.7926C53.1575 23.1733 52.5447 26.5907 51.316 31.0449C53.8118 26.6675 56.0773 23.0965 58.1124 20.3318C60.1843 17.5288 61.9315 16.1272 63.3522 16.1272C65.3489 16.1272 67.096 17.0296 68.5935 18.8343C70.1295 20.6006 70.8974 22.5013 70.8974 24.5364C70.8974 27.8003 70.3599 31.2177 69.2847 34.7887C68.248 38.3214 67.0976 41.0476 65.8289 42.9676C64.6001 44.8875 63.333 45.8474 62.0274 45.8474C60.7619 45.8474 60.1267 44.9451 60.1267 43.1403C60.1267 41.758 60.7603 38.9741 62.0274 34.7887C62.9874 31.3329 63.4674 28.8562 63.4674 27.3587C63.4674 25.8612 63.2754 25.1124 62.8914 25.1124C62.3938 25.1124 61.8947 25.362 61.3955 25.8612C60.9963 26.2893 60.6121 26.7311 60.2435 27.1859C59.9347 27.5699 59.5716 28.0691 59.1492 28.6834C58.7652 29.2594 58.4196 29.797 58.1124 30.2962C57.842 30.7569 57.4773 31.3713 57.0181 32.1393C56.5957 32.8688 56.2501 33.4832 55.9813 33.9824C55.7109 34.4432 55.3654 35.0575 54.9446 35.8255C51.372 42.5068 48.5705 45.8474 46.5354 45.8474C45.7274 45.8474 44.7115 45.1562 43.4811 43.7739C42.254 42.3532 41.6396 41.3164 41.6396 40.6637C41.6396 40.2413 41.9084 39.3389 42.4444 37.9566C43.0204 36.5359 43.4251 35.4607 43.6539 34.7311C43.9243 33.9632 44.1339 33.1568 44.2875 32.3121C44.4795 31.4673 44.6331 30.5649 44.7483 29.605C44.8635 28.6066 44.9403 27.8387 44.9787 27.3011C45.0571 26.7635 45.1323 25.9188 45.2106 24.7668C45.5562 19.7751 45.8442 17.0104 46.0746 16.4728C46.137 16.3464 46.1994 16.236 46.265 16.14ZM34.5776 16.14H34.1344C33.5808 16.2392 33.0912 16.9064 32.6672 18.1431C32.2449 19.4487 31.7649 21.5414 31.2273 24.4212C30.7281 27.2627 29.9794 30.7185 28.981 34.7887C28.0211 38.8205 27.5411 41.3548 27.5411 42.3916C27.5411 43.3899 27.8483 44.2155 28.4626 44.8683C29.1154 45.4826 29.8642 45.7898 30.7089 45.7898C32.1297 45.7898 33.0704 45.0411 33.5312 43.5435C34.8367 39.5117 36.1423 35.2495 37.4478 30.7569C38.7918 26.2259 39.4637 23.5957 39.4637 22.8661C39.4637 21.4454 38.9261 19.967 37.851 18.4311C36.891 17.0104 35.7999 16.2456 34.5776 16.14ZM101.698 2.53428C100.198 0.84476 98.9889 0 98.0673 0C96.9538 0 96.397 0.575972 96.397 1.72792C96.4738 4.72297 95.4755 10.7707 93.402 19.8711C91.8276 17.3752 89.8117 16.1272 87.3542 16.1272C85.7031 16.1272 84.0904 16.7032 82.5161 17.8551C80.9801 18.9687 79.6554 20.4086 78.5419 22.1749C77.4376 23.9593 76.4747 25.8273 75.662 27.7619C74.8681 29.6053 74.2322 31.5129 73.7613 33.464C73.3773 35.2303 73.1853 36.843 73.1853 38.3022C73.1853 39.7613 73.9533 41.3932 75.4892 43.1979C77.0635 44.9643 78.6763 45.8474 80.3274 45.8474C82.0169 45.8474 84.7816 44.2731 88.6214 41.1244C88.5783 41.2741 88.5589 41.4296 88.5638 41.5852C88.5638 42.5068 89.063 43.4475 90.0613 44.4075C91.0597 45.3674 91.962 45.8474 92.7684 45.8474C94.1891 45.8474 96.4354 39.2237 99.5073 25.9764C99.7761 24.8628 100.582 21.6374 101.926 16.3C103.27 10.9627 103.942 7.92922 103.942 7.19966C103.942 5.74053 103.195 4.1854 101.698 2.53428ZM85.9159 36.0559C83.6504 37.707 82.0377 38.5326 81.0777 38.5326C80.7322 38.5326 80.5018 38.4942 80.3866 38.4174C80.3098 38.3022 80.2714 38.091 80.2714 37.7838C80.2714 35.9407 80.9241 33.2336 82.2297 29.6626C82.8441 27.9731 83.6696 26.5139 84.7064 25.2852C85.7815 24.0565 86.8951 23.4421 88.047 23.4421C88.623 23.4421 89.2565 23.9029 89.9477 24.8244C90.6389 25.746 90.9845 26.7251 90.9845 27.7619C90.9845 28.7986 91.0037 29.4706 91.0421 29.7778C89.9285 32.3121 88.2198 34.4048 85.9159 36.0559ZM123.543 16.1272C125.54 16.1272 127.287 17.0296 128.784 18.8343C130.32 20.6006 131.088 22.5013 131.088 24.5364C131.088 27.8003 130.551 31.2177 129.475 34.7887C128.439 38.3214 127.287 41.0476 126.02 42.9676C124.791 44.8875 123.524 45.8474 122.218 45.8474C120.951 45.8474 120.317 44.9451 120.317 43.1403C120.317 41.758 120.951 38.9741 122.218 34.7887C123.178 31.3329 123.658 28.8562 123.658 27.3587C123.658 25.8612 123.466 25.1124 123.082 25.1124C122.583 25.1124 122.084 25.362 121.585 25.8612C121.185 26.2893 120.801 26.7311 120.433 27.1859C120.125 27.5699 119.761 28.0691 119.338 28.6834C118.954 29.2594 118.609 29.797 118.302 30.2962C118.033 30.7569 117.668 31.3713 117.207 32.1393C116.785 32.8688 116.439 33.4832 116.17 33.9824C115.902 34.4432 115.556 35.0575 115.134 35.8255C111.563 42.5068 108.76 45.8474 106.725 45.8474C105.918 45.8474 104.901 45.1562 103.672 43.7739C102.443 42.3532 101.829 41.3164 101.829 40.6637C101.829 40.2413 102.098 39.3389 102.635 37.9566C103.211 36.5359 103.614 35.4607 103.845 34.7311C104.113 33.9632 104.325 33.1568 104.478 32.3121C104.67 31.4673 104.824 30.5649 104.939 29.605C105.054 28.6066 105.131 27.8387 105.169 27.3011C105.246 26.7635 105.323 25.9188 105.4 24.7668C105.745 19.7751 106.033 17.0104 106.264 16.4728C106.533 15.9352 106.821 15.6665 107.128 15.6665C108.587 15.6665 109.988 16.2808 111.332 17.5096C112.676 18.6999 113.348 19.7943 113.348 20.7926C113.348 23.1733 112.734 26.5907 111.505 31.0449C114.001 26.6675 116.266 23.0965 118.302 20.3318C120.375 17.5288 122.122 16.1272 123.543 16.1272ZM154.009 31.9665C156.581 30.4689 157.868 28.7794 157.868 26.8979C157.868 24.5172 156.831 22.1365 154.757 19.7559C152.684 17.3368 150.418 16.1272 147.961 16.1272C145.542 16.1272 143.104 17.164 140.646 19.2375C138.189 21.2726 136.134 23.8069 134.483 26.8403C132.87 29.8738 132.064 32.792 132.064 35.5951C132.064 38.3598 133.043 40.7597 135.002 42.7948C136.96 44.8299 139.552 45.8474 142.777 45.8474C146.041 45.8474 148.902 45.1754 151.359 43.8315C153.855 42.4876 155.103 41.0668 155.103 39.5693C155.103 38.5326 154.316 38.0142 152.742 38.0142C152.665 38.0142 151.59 38.283 149.516 38.8205C147.481 39.3581 145.024 39.6269 142.144 39.6269C140.761 39.6269 139.897 39.4157 139.552 38.9933C139.206 38.5326 139.033 37.7838 139.033 36.747C139.033 35.7103 139.206 34.6735 139.552 33.6368C141.28 34.0208 143.488 34.2128 146.175 34.2128C148.863 34.2128 151.474 33.464 154.009 31.9665ZM149.977 24.306C150.783 25.0356 151.186 25.5924 151.186 25.9764C151.186 27.8195 148.556 28.741 143.296 28.741C142.643 28.741 142.144 28.7218 141.798 28.6834C142.796 27.0707 143.852 25.7652 144.966 24.7668C146.079 23.7301 146.982 23.2117 147.673 23.2117C148.403 23.2117 149.171 23.5765 149.977 24.306ZM176.385 16.1848C177.844 16.1848 179.284 17.0488 180.705 18.7767C182.126 20.5046 182.836 22.0597 182.836 23.4421C182.836 24.3636 182.433 24.8244 181.627 24.8244C181.166 24.8244 180.494 24.6516 179.611 24.306C178.758 23.9285 177.836 23.7324 176.904 23.7301C176.02 23.7301 174.696 24.0373 172.929 24.6516C171.201 25.266 170.337 26.0724 170.337 27.0707C170.337 27.4547 170.856 28.0115 171.893 28.741C172.929 29.4706 174.062 30.2194 175.291 30.9873C176.52 31.7553 177.652 32.8304 178.689 34.2128C179.726 35.5567 180.244 37.035 180.244 38.6478C180.244 40.2221 179.073 41.8156 176.731 43.4283C174.427 45.0411 171.701 45.8474 168.552 45.8474C165.442 45.8474 162.773 45.137 160.546 43.7163C158.319 42.2956 157.205 40.8365 157.205 39.3389C157.205 37.8414 157.82 37.0926 159.048 37.0926C159.548 37.0926 160.143 37.2846 160.834 37.6686C162.754 38.7821 165.135 39.3389 167.976 39.3389C170.856 39.3389 172.296 38.9549 172.296 38.187C172.296 37.419 171.739 36.5743 170.625 35.6527C169.515 34.6666 168.32 33.78 167.054 33.0032C165.752 32.1683 164.554 31.1823 163.483 30.0658C162.408 28.8754 161.871 27.7235 161.871 26.6099C161.871 24.5364 163.752 22.2901 167.515 19.8711C171.278 17.4136 174.235 16.1848 176.385 16.1848ZM205.416 18.7767C203.995 17.0488 202.555 16.1848 201.096 16.1848C198.946 16.1848 195.989 17.4136 192.226 19.8711C188.463 22.2901 186.582 24.5364 186.582 26.6099C186.582 27.7235 187.119 28.8754 188.194 30.0658C189.308 31.2177 190.498 32.1969 191.765 33.0032C193.071 33.8096 194.261 34.6927 195.336 35.6527C196.45 36.5743 197.007 37.419 197.007 38.187C197.007 38.9549 195.567 39.3389 192.687 39.3389C189.845 39.3389 187.465 38.7821 185.545 37.6686C184.854 37.2846 184.258 37.0926 183.759 37.0926C182.531 37.0926 181.916 37.8414 181.916 39.3389C181.916 40.8365 183.03 42.2956 185.257 43.7163C187.484 45.137 190.153 45.8474 193.263 45.8474C196.411 45.8474 199.138 45.0411 201.442 43.4283C203.784 41.8156 204.955 40.2221 204.955 38.6478C204.955 37.035 204.437 35.5567 203.4 34.2128C202.363 32.8304 201.23 31.7553 200.002 30.9873C198.849 30.2695 197.716 29.5205 196.603 28.741C195.567 28.0115 195.048 27.4547 195.048 27.0707C195.048 26.0724 195.912 25.266 197.64 24.6516C199.407 24.0373 200.731 23.7301 201.614 23.7301C202.536 23.7301 203.438 23.9221 204.321 24.306C205.205 24.6516 205.877 24.8244 206.337 24.8244C207.144 24.8244 207.547 24.3636 207.547 23.4421C207.547 22.0597 206.837 20.5046 205.416 18.7767Z" fill="var(--fill-0, #DB4863)"/>
</svg>
